<svg width="42" height="24" viewBox="0 0 42 24" fill="none" xmlns="http://www.w3.org/2000/svg">
<rect width="42" height="24" fill="white"/>
<path d="M28.1203 8.67758L42 1.06059V0H41.0402L25.2164 8.67758H28.1203Z" fill="#BD0034"/>
<path d="M27.4638 15.8044L41.9997 23.767V22.1761L30.3677 15.8044H27.4638Z" fill="#BD0034"/>
<path d="M0 1.82397L12.4278 8.67767H15.3399L0 0.225037V1.82397Z" fill="#BD0034"/>
<path d="M14.6754 15.8045L0 23.8554V24H2.64961L17.5875 15.8045H14.6754Z" fill="#BD0034"/>
<path d="M39.1291 0H24.4208V8.06697L39.1291 0Z" fill="#1A237B"/>
<path d="M17.9237 0H3.28107L17.9237 8.06697V0Z" fill="#1A237B"/>
<path d="M42.0001 8.67752V3.16565L32.0251 8.67752H42.0001Z" fill="#1A237B"/>
<path d="M42.0001 21.244V15.8044H32.0251L42.0001 21.244Z" fill="#1A237B"/>
<path d="M4.10962 24H17.9237V16.4071L4.10962 24Z" fill="#1A237B"/>
<path d="M24.4208 24H38.2759L24.4208 16.4071V24Z" fill="#1A237B"/>
<path d="M0 15.8045V21.4932L10.3196 15.8045H0Z" fill="#1A237B"/>
<path d="M0 8.67758H10.3196L0 2.9729V8.67758Z" fill="#1A237B"/>
<path d="M19.2281 0V10.0998H0V14.3743H19.2281V24H23.1246V14.3743H42V10.0998H23.1246V0H19.2281Z" fill="#BD0034"/>
</svg>
