<svg width="24" height="24" viewBox="0 0 24 24" fill="none" xmlns="http://www.w3.org/2000/svg">
<path fill-rule="evenodd" clip-rule="evenodd" d="M11.9691 16.9453C14.7234 16.9453 16.9562 14.7125 16.9562 11.9583C16.9562 9.20404 14.7234 6.97128 11.9691 6.97128C9.21489 6.97128 6.98212 9.20404 6.98212 11.9583C6.98212 14.7125 9.21489 16.9453 11.9691 16.9453ZM7.09442 7.03707C8.41311 5.71838 10.1664 4.98435 12.0312 4.98435C13.8961 4.98435 15.6494 5.72224 16.9681 7.04094C17.8048 7.87763 18.4025 8.88308 18.728 10.0052H23.9689V2.961C23.9689 1.30843 22.6916 0.0311279 21.039 0.0311279H3.0858C1.43322 0.0311279 0.03125 1.30843 0.03125 2.961V10.0052H5.33444C5.65997 8.88308 6.25772 7.87377 7.09442 7.03707ZM21.9742 5.21771C21.9742 5.65837 21.617 6.01563 21.1762 6.01563H18.7825C18.3418 6.01563 17.9846 5.65844 17.9846 5.21771V2.82394C17.9846 2.38328 18.3418 2.02602 18.7825 2.02602H21.1762C21.6169 2.02602 21.9742 2.38321 21.9742 2.82394V5.21771ZM16.9681 16.9109C15.6494 18.2296 13.8961 18.948 12.0312 18.948C10.1664 18.948 8.41311 18.2335 7.09442 16.9148C5.77816 15.5986 5.0523 13.8078 5.04956 12H0.03125V20.9143C0.03125 22.5669 1.43322 23.9688 3.0858 23.9688H21.039C22.6916 23.9688 23.9689 22.5669 23.9689 20.9143V12H19.0129C19.0103 13.8078 18.2844 15.5946 16.9681 16.9109Z" fill="black"/>
<mask id="mask0" mask-type="alpha" maskUnits="userSpaceOnUse" x="0" y="0" width="24" height="24">
<path fill-rule="evenodd" clip-rule="evenodd" d="M11.9691 16.9453C14.7234 16.9453 16.9562 14.7125 16.9562 11.9583C16.9562 9.20404 14.7234 6.97128 11.9691 6.97128C9.21489 6.97128 6.98212 9.20404 6.98212 11.9583C6.98212 14.7125 9.21489 16.9453 11.9691 16.9453ZM7.09442 7.03707C8.41311 5.71838 10.1664 4.98435 12.0312 4.98435C13.8961 4.98435 15.6494 5.72224 16.9681 7.04094C17.8048 7.87763 18.4025 8.88308 18.728 10.0052H23.9689V2.961C23.9689 1.30843 22.6916 0.0311279 21.039 0.0311279H3.0858C1.43322 0.0311279 0.03125 1.30843 0.03125 2.961V10.0052H5.33444C5.65997 8.88308 6.25772 7.87377 7.09442 7.03707ZM21.9742 5.21771C21.9742 5.65837 21.617 6.01563 21.1762 6.01563H18.7825C18.3418 6.01563 17.9846 5.65844 17.9846 5.21771V2.82394C17.9846 2.38328 18.3418 2.02602 18.7825 2.02602H21.1762C21.6169 2.02602 21.9742 2.38321 21.9742 2.82394V5.21771ZM16.9681 16.9109C15.6494 18.2296 13.8961 18.948 12.0312 18.948C10.1664 18.948 8.41311 18.2335 7.09442 16.9148C5.77816 15.5986 5.0523 13.8078 5.04956 12H0.03125V20.9143C0.03125 22.5669 1.43322 23.9688 3.0858 23.9688H21.039C22.6916 23.9688 23.9689 22.5669 23.9689 20.9143V12H19.0129C19.0103 13.8078 18.2844 15.5946 16.9681 16.9109Z" fill="white"/>
</mask>
<g mask="url(#mask0)">
<rect width="24" height="24" fill="white"/>
</g>
</svg>
