<svg width="32" height="32" viewBox="0 0 32 32" fill="none" xmlns="http://www.w3.org/2000/svg">
<path fill-rule="evenodd" clip-rule="evenodd" d="M29.4287 0H2.7329C1.2748 0 0 1.05 0 2.49167V29.25C0 30.7 1.2748 31.9917 2.7329 31.9917H29.4204C30.8868 31.9917 31.9866 30.6917 31.9866 29.25V2.49167C31.995 1.05 30.8868 0 29.4287 0ZM9.91533 26.6667H5.33272V12.4167H9.91533V26.6667ZM7.78234 10.25H7.74901C6.28257 10.25 5.33272 9.15834 5.33272 7.79167C5.33272 6.4 6.30757 5.33334 7.80733 5.33334C9.30709 5.33334 10.2236 6.39167 10.2569 7.79167C10.2569 9.15834 9.30709 10.25 7.78234 10.25ZM26.6628 26.6667H22.0802V18.875C22.0802 17.0083 21.4136 15.7333 19.7556 15.7333C18.4891 15.7333 17.7392 16.5917 17.4059 17.425C17.2809 17.725 17.2476 18.1333 17.2476 18.55V26.6667H12.665V12.4167H17.2476V14.4C17.9142 13.45 18.9557 12.0833 21.3803 12.0833C24.3882 12.0833 26.6628 14.0667 26.6628 18.3417V26.6667Z" fill="white"/>
<mask id="mask0" mask-type="alpha" maskUnits="userSpaceOnUse" x="0" y="0" width="32" height="32">
<path fill-rule="evenodd" clip-rule="evenodd" d="M29.4287 0H2.7329C1.2748 0 0 1.05 0 2.49167V29.25C0 30.7 1.2748 31.9917 2.7329 31.9917H29.4204C30.8868 31.9917 31.9866 30.6917 31.9866 29.25V2.49167C31.995 1.05 30.8868 0 29.4287 0ZM9.91533 26.6667H5.33272V12.4167H9.91533V26.6667ZM7.78234 10.25H7.74901C6.28257 10.25 5.33272 9.15834 5.33272 7.79167C5.33272 6.4 6.30757 5.33334 7.80733 5.33334C9.30709 5.33334 10.2236 6.39167 10.2569 7.79167C10.2569 9.15834 9.30709 10.25 7.78234 10.25ZM26.6628 26.6667H22.0802V18.875C22.0802 17.0083 21.4136 15.7333 19.7556 15.7333C18.4891 15.7333 17.7392 16.5917 17.4059 17.425C17.2809 17.725 17.2476 18.1333 17.2476 18.55V26.6667H12.665V12.4167H17.2476V14.4C17.9142 13.45 18.9557 12.0833 21.3803 12.0833C24.3882 12.0833 26.6628 14.0667 26.6628 18.3417V26.6667Z" fill="white"/>
</mask>
<g mask="url(#mask0)">
<rect width="32" height="32" fill="white"/>
</g>
</svg>
